<svg height="512pt" viewBox="0 0 512 512.00013" width="512pt" xmlns="http://www.w3.org/2000/svg"><path d="m332.742188 238.84375 72.878906 200.101562-57.039063-17-32.75 49.699219-72.878906-200.097656zm0 0" fill="#ab2e42"/><path d="m274.824219 296.761719 200.101562 72.878906-17-57.042969 49.699219-32.746094-200.097656-72.878906zm0 0" fill="#c0344a"/><path d="m227.28125 166.0625 141.492188-141.492188c32.757812-32.761718 85.882812-32.761718 118.652343.003907 32.765625 32.769531 32.765625 85.894531.003907 118.652343l-141.492188 141.492188zm0 0" fill="#d4d2d3"/><path d="m135.800781 257.542969 91.480469-91.480469c32.765625-32.765625 85.890625-32.765625 118.65625 0 32.769531 32.765625 32.769531 85.890625 0 118.65625l-91.480469 91.480469zm0 0" fill="#da5b65"/><path d="m254.457031 257.542969c32.769531 32.765625 32.769531 85.890625 0 118.65625l-111.230469 111.230469-118.65625-118.65625 111.230469-111.230469c32.765625-32.769531 85.890625-32.769531 118.65625 0zm0 0" fill="#d4d2d3"/><path d="m167.800781 428.101562c0 46.335938-37.5625 83.898438-83.902343 83.898438-46.335938 0-83.898438-37.5625-83.898438-83.898438 0-46.339843 37.5625-83.902343 83.898438-83.902343 46.339843 0 83.902343 37.5625 83.902343 83.902343zm0 0" fill="#bab8b9"/></svg>